<svg xmlns="http://www.w3.org/2000/svg" version="1.1" xmlns:xlink="http://www.w3.org/1999/xlink" xmlns:svgjs="http://svgjs.dev/svgjs" width="128" height="128" viewBox="0 0 128 128"><g transform="matrix(0.5099009900990099,0,0,0.5099009900990099,31.472290086151474,12.333870967741944)"><svg viewBox="0 0 98 155" data-background-color="#ffa96a" preserveAspectRatio="xMidYMid meet" height="202" width="128" xmlns="http://www.w3.org/2000/svg" xmlns:xlink="http://www.w3.org/1999/xlink"><defs></defs><g id="tight-bounds" transform="matrix(1,0,0,1,-0.15909090909092072,0.2499999999999858)"><svg viewBox="0 0 98.31818181818183 154.5" height="154.5" width="98.31818181818183"><g><svg viewBox="0 0 98.31818181818183 154.5" height="154.5" width="98.31818181818183"><g><svg viewBox="0 0 98.31818181818183 154.5" height="154.5" width="98.31818181818183"><g><svg viewBox="0 0 98.31818181818183 154.5" height="154.5" width="98.31818181818183"><g><svg viewBox="0 0 98.31818181818183 154.5" height="154.5" width="98.31818181818183"><g transform="matrix(1,0,0,1,0,0)"><svg width="98.31818181818183" viewBox="2.65 -36.55 23.450000000000003 36.849999999999994" height="154.5" data-palette-color="#f8db5e"><path d="M14.35 0.3L14.35 0.3Q11.05 0.3 8.4-0.83 5.75-1.95 4.2-4.48 2.65-7 2.65-11.15L2.65-11.15 2.65-25.1Q2.65-29.25 4.2-31.78 5.75-34.3 8.38-35.43 11-36.55 14.15-36.55L14.15-36.55Q17.65-36.55 20.33-35.4 23-34.25 24.55-32.1 26.1-29.95 26.1-26.95L26.1-26.95Q26.1-25.1 25.3-24.48 24.5-23.85 22.85-23.85L22.85-23.85Q21.55-23.85 20.6-24.3 19.65-24.75 19.6-25.9L19.6-25.9Q19.55-27.1 19.13-28.23 18.7-29.35 17.63-30.1 16.55-30.85 14.35-30.85L14.35-30.85Q11.9-30.85 10.5-29.43 9.1-28 9.1-25.1L9.1-25.1 9.1-11.15Q9.1-8.25 10.5-6.83 11.9-5.4 14.35-5.4L14.35-5.4Q16.8-5.4 18.2-6.83 19.6-8.25 19.6-11.15L19.6-11.15 19.6-14.1 15.55-14.1Q14.6-14.1 14.08-14.9 13.55-15.7 13.55-16.65L13.55-16.65Q13.55-17.6 14.08-18.4 14.6-19.2 15.55-19.2L15.55-19.2 24.05-19.2Q25.05-19.2 25.58-18.57 26.1-17.95 26.1-17.1L26.1-17.1 26.1-11.15Q26.1-7 24.55-4.48 23-1.95 20.33-0.83 17.65 0.3 14.35 0.3Z" opacity="1" transform="matrix(1,0,0,1,0,0)" fill="#f8db5e" class="undefined-text-0" data-fill-palette-color="primary" id="text-0"></path></svg></g></svg></g></svg></g></svg></g><g></g></svg></g></svg><rect width="98.31818181818183" height="154.5" fill="none" stroke="none" visibility="hidden"></rect></g></svg></g></svg>