<svg xmlns="http://www.w3.org/2000/svg" version="1.1" xmlns:xlink="http://www.w3.org/1999/xlink" xmlns:svgjs="http://svgjs.dev/svgjs" width="1000" height="267" viewBox="0 0 1000 267"><g transform="matrix(1,0,0,1,-0.6056348047761162,-0.1690825889801033)"><svg viewBox="0 0 396 106" data-background-color="#ffa96a" preserveAspectRatio="xMidYMid meet" height="267" width="1000" xmlns="http://www.w3.org/2000/svg" xmlns:xlink="http://www.w3.org/1999/xlink"><defs></defs><g id="tight-bounds" transform="matrix(1,0,0,1,0.24008861730862918,0.06731595216433561)"><svg viewBox="0 0 395.52 105.8654427942293" height="105.8654427942293" width="395.52"><g><svg viewBox="0 0 395.52 105.8654427942293" height="105.8654427942293" width="395.52"><g><svg viewBox="0 0 395.52 105.8654427942293" height="105.8654427942293" width="395.52"><g><svg viewBox="0 0 395.52 105.8654427942293" height="105.8654427942293" width="395.52"><g><svg viewBox="0 0 395.52 105.8654427942293" height="105.8654427942293" width="395.52"><path d="M394.594 22.706C392.735 11.717 387.435 8.662 387.435 8.662 371.165-2.656 350.86-0.217 332.619 1.41 300.414 1.476 268.339 3.893 236.208 5.19 168.767 5.388 100.749 2.135 33.643 10.157 27.339 12.618-6.54 10.64 1.121 24.113 3.129 29.717 10.456 35.937 10.232 41.079 11.236 41.98 12.631 39.915 13.226 41.211 15.309 44.706 18.711 43.057 21.501 45.123 17.614 50.64 20.403 55.233 23.062 60.046 18.377 61.299 12.371 60.705 9.675 64.859 9.396 67.87 7.89 67.299 6.235 67.167 5.026 67.079 2.59 67.409 2.999 68.354 4.394 71.584-1.594 73.452 2.162 76.617-0.422 80.046 3.948 83.013 3.353 86.727 3.278 87.474 3.687 88.111 4.338 88.287 7.22 89.232 3.018 91.078 3.464 93.078 33.029 106.748 65.104 97.298 95.394 103.584 103.259 99.188 97.346 105.144 100.489 104.221 102.943 103.144 104.728 107.606 107.499 105.078 107.927 104.353 107.276 102.639 108.8 102.968 109.6 103.144 110.307 103.1 110.418 102.089 110.586 100.573 109.117 101.518 108.726 100.727 112.947 96.727 111.906 106.243 115.866 105.847 115.68 104.683 114.528 103.012 116.889 103.232 119.232 101.562 119.306 100.177 121.389 103.935 121.463 104.748 121.835 105.32 122.43 105.715 128.938 101.628 135.409 107.166 142.233 105.32 146.417 103.298 150.433 106.419 154.672 105.65 156.16 105.034 157.666 103.935 159.098 105.781 176.632 106.177 195.319 104.529 211.943 105.847 256.364 103.386 303.835 106.858 350.674 103.606 361.719 102.353 373.192 100.573 383.958 99.144 383.958 99.144 392.679 95.232 392.679 77.65S394.538 62.266 394.817 48.266C395.096 34.266 396.398 33.695 394.538 22.706Z" opacity="1" fill="#f8db5e" data-fill-palette-color="tertiary"></path><g transform="matrix(1,0,0,1,55.76832,26.230666666666668)"><svg width="283.98335999999995" viewBox="2.6500000953674316 -36.849998474121094 197.52999877929688 37.14999771118164" height="53.40410946089596" data-palette-color="#ffa96a"><path d="M14.35 0.3L14.35 0.3Q11.05 0.3 8.4-0.83 5.75-1.95 4.2-4.48 2.65-7 2.65-11.15L2.65-11.15 2.65-25.1Q2.65-29.25 4.2-31.78 5.75-34.3 8.38-35.43 11-36.55 14.15-36.55L14.15-36.55Q17.65-36.55 20.33-35.4 23-34.25 24.55-32.1 26.1-29.95 26.1-26.95L26.1-26.95Q26.1-25.1 25.3-24.48 24.5-23.85 22.85-23.85L22.85-23.85Q21.55-23.85 20.6-24.3 19.65-24.75 19.6-25.9L19.6-25.9Q19.55-27.1 19.13-28.23 18.7-29.35 17.63-30.1 16.55-30.85 14.35-30.85L14.35-30.85Q11.9-30.85 10.5-29.43 9.1-28 9.1-25.1L9.1-25.1 9.1-11.15Q9.1-8.25 10.5-6.83 11.9-5.4 14.35-5.4L14.35-5.4Q16.8-5.4 18.2-6.83 19.6-8.25 19.6-11.15L19.6-11.15 19.6-14.1 15.55-14.1Q14.6-14.1 14.08-14.9 13.55-15.7 13.55-16.65L13.55-16.65Q13.55-17.6 14.08-18.4 14.6-19.2 15.55-19.2L15.55-19.2 24.05-19.2Q25.05-19.2 25.58-18.57 26.1-17.95 26.1-17.1L26.1-17.1 26.1-11.15Q26.1-7 24.55-4.48 23-1.95 20.33-0.83 17.65 0.3 14.35 0.3ZM34.45 0L34.45 0Q33.25 0 32.22-0.53 31.2-1.05 31.2-2.05L31.2-2.05 31.2-34.55Q31.2-35.6 32.22-36.08 33.25-36.55 34.45-36.55L34.45-36.55Q35.7-36.55 36.7-36.08 37.7-35.6 37.7-34.55L37.7-34.55 37.7-2.05Q37.7-1.05 36.7-0.53 35.7 0 34.45 0ZM55.1 0.3L55.1 0.3Q51.8 0.3 49.15-0.83 46.5-1.95 44.95-4.48 43.4-7 43.4-11.15L43.4-11.15 43.4-25.1Q43.4-29.25 44.95-31.78 46.5-34.3 49.12-35.43 51.75-36.55 55.1-36.55L55.1-36.55Q58.4-36.55 61.07-35.43 63.75-34.3 65.3-31.78 66.84-29.25 66.84-25.1L66.84-25.1 66.84-11.15Q66.84-7 65.3-4.48 63.75-1.95 61.07-0.83 58.4 0.3 55.1 0.3ZM55.1-5.4L55.1-5.4Q57.55-5.4 58.95-6.8 60.35-8.2 60.35-11.15L60.35-11.15 60.35-25.1Q60.35-28.05 58.95-29.45 57.55-30.85 55.1-30.85L55.1-30.85Q52.65-30.85 51.25-29.45 49.85-28.05 49.85-25.1L49.85-25.1 49.85-11.15Q49.85-8.2 51.25-6.8 52.65-5.4 55.1-5.4ZM75.69 0L75.69 0Q74.49 0 73.47-0.53 72.44-1.05 72.44-2.05L72.44-2.05 72.44-34.55Q72.44-35.6 73.47-36.08 74.49-36.55 75.69-36.55L75.69-36.55Q76.94-36.55 77.94-36.08 78.94-35.6 78.94-34.55L78.94-34.55 78.94-2.05Q78.94-1.05 77.94-0.53 76.94 0 75.69 0ZM86.54 0L86.54 0Q85.64 0 84.69-0.35 83.74-0.7 83.09-1.3 82.44-1.9 82.44-2.7L82.44-2.7Q82.44-2.85 82.49-3.2L82.49-3.2 92.14-34.65Q92.49-35.75 93.72-36.3 94.94-36.85 96.34-36.85L96.34-36.85Q97.79-36.85 98.99-36.3 100.19-35.75 100.54-34.65L100.54-34.65 110.19-3.2Q110.29-2.85 110.29-2.7L110.29-2.7Q110.29-1.95 109.62-1.33 108.94-0.7 107.99-0.35 107.04 0 106.14 0L106.14 0Q105.34 0 104.77-0.28 104.19-0.55 103.99-1.3L103.99-1.3 102.09-7.95 90.59-7.95 88.74-1.3Q88.54-0.55 87.94-0.28 87.34 0 86.54 0ZM96.34-28.4L91.99-13.05 100.69-13.05 96.34-28.4ZM116.94 0L116.94 0Q115.74 0 114.71-0.53 113.69-1.05 113.69-2.05L113.69-2.05 113.69-34.5Q113.69-35.5 114.59-36.02 115.49-36.55 116.54-36.55L116.54-36.55 133.99-36.55Q135.09-36.55 135.56-35.65 136.04-34.75 136.04-33.75L136.04-33.75Q136.04-32.55 135.51-31.7 134.99-30.85 133.99-30.85L133.99-30.85 120.19-30.85 120.19-20.85 127.84-20.85Q128.84-20.85 129.36-20.08 129.89-19.3 129.89-18.25L129.89-18.25Q129.89-17.4 129.41-16.57 128.94-15.75 127.84-15.75L127.84-15.75 120.19-15.75 120.19-2.05Q120.19-1.05 119.19-0.53 118.19 0 116.94 0ZM157.89 0L141.99 0Q140.94 0 140.04-0.53 139.14-1.05 139.14-2.05L139.14-2.05 139.14-34.55Q139.14-35.6 140.16-36.08 141.19-36.55 142.39-36.55L142.39-36.55Q143.64-36.55 144.64-36.08 145.64-35.6 145.64-34.55L145.64-34.55 145.64-5.7 157.89-5.7Q158.84-5.7 159.31-4.83 159.79-3.95 159.79-2.85L159.79-2.85Q159.79-1.8 159.31-0.9 158.84 0 157.89 0L157.89 0ZM166.53 0L166.53 0Q165.33 0 164.31-0.53 163.28-1.05 163.28-2.05L163.28-2.05 163.28-34.55Q163.28-35.6 164.31-36.08 165.33-36.55 166.53-36.55L166.53-36.55Q167.78-36.55 168.78-36.08 169.78-35.6 169.78-34.55L169.78-34.55 169.78-2.05Q169.78-1.05 168.78-0.53 167.78 0 166.53 0ZM177.73 0.25L177.73 0.25Q176.83 0.25 175.83-0.2 174.83-0.65 174.13-1.38 173.43-2.1 173.43-3L173.43-3Q173.43-3.55 173.83-4.2L173.83-4.2 182.48-18.3 174.13-32.35Q173.68-33.05 173.68-33.75L173.68-33.75Q173.68-34.6 174.33-35.3 174.98-36 175.96-36.4 176.93-36.8 177.83-36.8L177.83-36.8Q178.63-36.8 179.16-36.43 179.68-36.05 179.98-35.4L179.98-35.4 186.78-23.15 193.63-35.4Q193.98-36.05 194.51-36.43 195.03-36.8 195.78-36.8L195.78-36.8Q196.68-36.8 197.66-36.4 198.63-36 199.28-35.3 199.93-34.6 199.93-33.75L199.93-33.75Q199.93-33.05 199.48-32.35L199.48-32.35 191.13-18.3 199.78-4.2Q200.18-3.55 200.18-3L200.18-3Q200.18-2.1 199.48-1.38 198.78-0.65 197.81-0.2 196.83 0.25 195.88 0.25L195.88 0.25Q195.33 0.25 194.86-0.05 194.38-0.35 194.13-0.8L194.13-0.8 186.78-13.65 179.48-0.8Q179.23-0.35 178.76-0.05 178.28 0.25 177.73 0.25Z" opacity="1" transform="matrix(1,0,0,1,0,0)" fill="#ffa96a" class="undefined-text-0" data-fill-palette-color="quaternary" id="text-0"></path></svg></g></svg></g></svg></g></svg></g><g></g></svg></g></svg><rect width="395.52" height="105.8654427942293" fill="none" stroke="none" visibility="hidden"></rect></g></svg></g></svg>